<?xml version="1.0" encoding="UTF-8" standalone="no"?>
<!-- Created with Inkscape (http://www.inkscape.org/) -->

<svg
   version="1.1"
   width="1005.4"
   height="1005.4"
   id="svg2"
   xml:space="preserve"
   inkscape:version="1.1 (c68e22c387, 2021-05-23)"
   sodipodi:docname="Japan_road_sign_325-3.svg"
   xmlns:inkscape="http://www.inkscape.org/namespaces/inkscape"
   xmlns:sodipodi="http://sodipodi.sourceforge.net/DTD/sodipodi-0.dtd"
   xmlns="http://www.w3.org/2000/svg"
   xmlns:svg="http://www.w3.org/2000/svg"
   xmlns:rdf="http://www.w3.org/1999/02/22-rdf-syntax-ns#"
   xmlns:cc="http://creativecommons.org/ns#"
   xmlns:dc="http://purl.org/dc/elements/1.1/"><sodipodi:namedview
     pagecolor="#ffffff"
     bordercolor="#666666"
     borderopacity="1"
     objecttolerance="10"
     gridtolerance="10"
     guidetolerance="10"
     inkscape:pageopacity="0"
     inkscape:pageshadow="2"
     inkscape:window-width="1366"
     inkscape:window-height="705"
     id="namedview28"
     showgrid="false"
     fit-margin-top="0.2"
     fit-margin-left="0.2"
     fit-margin-right="0.2"
     fit-margin-bottom="0.2"
     inkscape:zoom="1"
     inkscape:cx="557.5"
     inkscape:cy="718.5"
     inkscape:window-x="-8"
     inkscape:window-y="-8"
     inkscape:window-maximized="1"
     inkscape:current-layer="svg2"
     inkscape:pagecheckerboard="0" /><metadata
     id="metadata8"><rdf:RDF><cc:Work
         rdf:about=""><dc:format>image/svg+xml</dc:format><dc:type
           rdf:resource="http://purl.org/dc/dcmitype/StillImage" /></cc:Work></rdf:RDF></metadata><defs
     id="defs6"><linearGradient
       id="linearGradient15703"
       inkscape:swatch="solid"><stop
         style="stop-color:#ffffff;stop-opacity:1;"
         offset="0"
         id="stop15705" /></linearGradient></defs><path
     inkscape:connector-curvature="0"
     style="fill:#ffffff;fill-opacity:1;stroke:#0066b3;stroke-width:5;stroke-miterlimit:4;stroke-opacity:1;stroke-dasharray:none"
     d="m 2.69998,502.7 c 0,-276.1424 223.85772,-500 500.0001,-500 276.14238,0 500.00002,223.8576 500.00002,500 0,276.1423 -223.85764,500.0001 -500.00002,500.0001 C 226.5577,1002.7001 2.69998,778.8423 2.69998,502.7 z"
     id="path3854" /><path
     id="path14622"
     d="m 37.325,502.7 c 0,257.0196 208.35548,465.375 465.375,465.375 257.01958,0 465.37508,-208.3554 465.37508,-465.375 C 968.07508,245.6804 759.71958,37.325 502.7,37.325 245.68048,37.325 37.325,245.6804 37.325,502.7 z"
     style="fill:#0066b3;fill-opacity:1;stroke:none"
     inkscape:connector-curvature="0"
     sodipodi:nodetypes="sssss" /><path
     d="m 544.10715,370.31483 c -2.73596,-4.64297 -0.88436,-11.93907 -9.11985,-20.17496 -8.26314,-8.20811 -12.10581,-8.89769 -10.30948,-12.54574 1.79634,-3.73096 12.17513,-11.08762 11.23551,-20.20775 -0.93962,-9.1479 -4.89795,-16.73517 -13.13345,-16.73517 -8.26314,0 -20.04261,3.26603 -20.94337,7.70811 -1.58382,7.81062 -2.76359,16.85109 0,19.61469 2.76359,2.6807 6.62031,2.07403 6.62031,5.63916 0,3.73096 -1.79634,9.23061 -6.35625,9.23061 -4.61521,0 -20.17424,0 -26.5305,-0.91202 -6.43916,-0.93895 -11.93872,-5.52721 -11.93872,-5.52721 0,0 -1.61985,-16.28198 -6.20786,-20.79558 0.91198,-2.6807 -4.73596,-29.50334 -4.73596,-47.79893 0,-18.24025 -6.41152,-52.7309 -12.79542,-72.87808 -6.43917,-20.1194 -10.97145,-23.68454 -21.91527,-35.67895 -11.02673,-11.80082 -21.94293,-17.32824 -27.47012,-17.32824 -0.85394,-0.0207 -1.7023,-0.10363 -2.54249,-0.27567 l -1.75,-9.10743 c 6.61161,-4.01037 11.41087,-11.77656 12.04333,-20.37342 l -0.23386,-10.67547 c 3.73085,-0.58037 6.35627,-1.32656 7.40642,-2.15566 h 0.82908 l -0.46988,-0.55343 c 0.0269,-0.0829 0.22115,-0.18655 0.22115,-0.3047 0,-0.58037 -0.7186,-1.02186 -1.85153,-1.57529 l -5.49404,-1.61667 c 0.69177,-11.649828 -12.35327,-18.363179 -19.70919,-18.55891 -11.7729,0 -19.94836,11.368177 -19.94836,18.166817 0.39403,1.750219 -0.84595,1.326023 -5.44975,2.395743 -0.7186,0.38761 -1.18827,0.7462 -1.18827,1.18769 l 0.0269,0.10364 -0.60792,0.74619 h 1.13314 c 0.9949,0.8291 3.48213,1.51933 6.99188,2.10053 l 0.22407,10.91095 c 0.70525,9.38869 4.82069,17.6955 10.44596,21.19307 l -0.5,7.14008 c -2.42091,0.40004 -4.77383,1.1338 -6.99188,2.18323 -11.85583,5.44451 -38.38631,7.26853 -47.53379,23.76766 -8.15259,14.64754 -17.35535,49.99486 -19.2346,77.43814 -1.7964,27.47085 -0.91198,58.50704 0,63.09467 0.91199,4.58763 1.87932,23.73988 5.47192,18.29559 3.60161,-2.22225 4.4243,-7.45702 4.53409,-14.80579 0.0522,-3.49157 3.75668,-0.31154 3.75668,-3.4898 0,-6.38409 1.82397,-41.12347 3.62031,-52.09518 1.82397,-10.99949 10.05947,-54.83142 15.58666,-54.83142 5.47191,0 5.47191,22.77274 5.47191,37.44784 0,14.61977 0,32.88779 -4.61521,46.59554 -2.29378,7.0198 -3.64794,19.26274 -5.44428,25.61925 -1.60281,5.58256 4.58758,12.79574 4.58758,18.32316 0,5.38916 -0.0999,143.20821 -1.03962,148.70785 0.0214,2.67501 -2.00558,1.38181 -2.4549,2.15922 -1.53028,1.63474 -2.03273,6.80737 -2.03273,8.18228 l 0.93955,5.52741 c 3.64794,6.41166 2.70832,10.03214 13.73505,9.12013 2.72191,0.044 1.03548,-2.07053 4.76744,-6.60401 0.86506,-1.05086 2.53878,-3.18796 3.79569,-3.92257 1.2569,-0.73461 3.53449,0.24576 4.23229,-0.44514 2.6807,-2.6809 11.88346,-156.36865 11.88346,-156.36865 0,0 2.70833,-9.12012 5.44428,-9.12012 2.76359,0 4.58756,5.44429 4.58756,8.15276 0,2.76361 10.9991,37.55833 13.73505,53.11788 1.35416,7.73822 5.8371,87.39938 5.86932,96.11803 0,0 5.53999,-1.07716 5.36322,1.15611 -0.42962,5.42752 0.33114,22.44363 12.12235,21.2076 5.10417,0.6182 3.95517,-16.30088 4.29423,-22.21319 0.10607,-1.8494 1.94129,-0.82968 1.94129,-2.17003 0,-2.70847 -4.02719,-137.07378 -4.02719,-147.2164 0,-9.97679 3.64794,-13.59727 2.76358,-27.30502 -1.24361,-23.77264 -2.16389,-47.56061 -2.76358,-71.35812 0,-8.29103 5.52719,-36.56341 8.23549,-35.65139 2.76361,0.93895 14.64704,103.27855 19.20697,107.86618 4.58756,4.58763 8.19382,3.6945 8.19382,6.51345 0,2.68069 4.52719,21.65226 4.52719,21.65226 0,0 6.59649,6.96065 8.28228,9.28213 2.7636,3.73096 9.17513,8.26325 11.91108,8.26325 2.76359,0 12.79542,2.76381 15.53138,8.26345 2.76361,5.44451 0,21.00385 -8.20787,30.17932 -8.20786,9.12012 -16.49864,23.73989 -14.64702,28.32772 1.85154,4.53229 14.64702,7.2961 15.50375,12.79574 0.46978,2.74982 -2.47732,13.45433 -2.9264,26.13962 -0.44909,12.68529 1.59984,27.35136 -0.66628,32.36742 -4.58756,10.0597 -6.41153,9.12012 -2.76359,13.70775 3.64794,4.5325 6.43918,1.79708 9.11986,-0.91201 2.76358,-2.7636 10.08711,-53.06253 12.79542,-57.59503 2.7636,-4.53228 5.52719,-1.76806 5.52719,-1.76806 2.15809,12.06 0.78245,25.42786 3.22955,32.50646 1.82397,5.44451 11.38985,23.18164 14.09817,24.12122 2.81886,0.91201 5.64822,-9.06295 5.64822,-9.06295 0,0 -2.02921,-4.32128 -3.9558,-9.22831 -1.92659,-4.90704 -3.75056,-10.39984 -3.34008,-12.7429 1.94651,-11.11089 2.61492,-25.59352 3.49927,-28.35712 0.96726,-2.76381 2.76359,-9.17547 5.47191,-9.17547 2.79122,0 10.05947,0 10.99909,-2.7636 0.93962,-2.76381 -10.05947,-28.32772 -12.79543,-32.00334 -2.70832,-3.62048 -1.79634,-16.444 0,-21.97121 1.79634,-5.38916 0.85671,-7.26853 4.58756,-5.38916 1.82398,0.88403 3.85282,8.06067 6.13279,12.04388 2.27996,3.98321 2.69561,2.41007 3.39683,4.5506 1.41421,4.31699 2.14942,6.26153 4.88537,6.26153 0.6909,0 0.82238,-4.32721 0.85294,-6.46987 0.0276,-1.93501 0.66733,-0.68653 0.95459,-3.262 0.57452,-5.15094 -0.24895,-10.87188 -1.63075,-13.15191"
     fill="#ffffff"
     id="path1975"
     sodipodi:nodetypes="cccssscsscccsccccccccccsccccccccccccccccscsscssccscccccssccsscsscsssccccsccsccccsccccccccsscsscccsssssc"
     style="stroke-width:27.6363" /><path
     style="display:inline;fill:none;fill-opacity:1;stroke:#ffffff;stroke-width:9.50082;stroke-linecap:butt;stroke-linejoin:miter;stroke-miterlimit:4;stroke-dasharray:none;stroke-opacity:1"
     d="m 483.34879,666.37667 97.94392,92.95295 137.63472,-0.0994 -73.05965,-124.78778 H 491.5656"
     id="path1724"
     sodipodi:nodetypes="ccccc" /><path
     style="display:inline;fill:none;fill-opacity:1;stroke:#ffffff;stroke-width:9.50082;stroke-linecap:square;stroke-linejoin:miter;stroke-miterlimit:4;stroke-dasharray:none;stroke-opacity:1"
     d="m 538.3728,552.38343 h -51.13821 c 0,0 -14.32609,-0.7361 -17.77614,5.16544 -15.65207,26.77433 25.41247,35.47927 36.8993,39.38108 l -35.31502,99.87387 -40.64427,61.95841"
     id="path4950"
     sodipodi:nodetypes="ccsccc" /><path
     id="rect6845"
     style="display:inline;fill:#ffffff;fill-opacity:1;stroke:none;stroke-width:10.035;stroke-linecap:round;stroke-opacity:1"
     d="m 581.83,802.38228 h 21.30883 v 7.79931 H 581.83 Z" /><path
     id="rect6971"
     style="display:inline;fill:#ffffff;fill-opacity:1;stroke:none;stroke-width:10.2159;stroke-linecap:round;stroke-opacity:1"
     d="m 560.674,705.76099 h 20.77619 v 8.29005 H 560.674 Z" /><path
     style="display:inline;fill:none;fill-opacity:1;stroke:#ffffff;stroke-width:9.50082;stroke-linecap:butt;stroke-linejoin:miter;stroke-miterlimit:4;stroke-dasharray:none;stroke-opacity:1"
     d="M 592.98293,808.49114 572.33094,712.28327"
     id="path7006"
     sodipodi:nodetypes="cc" /><path
     style="display:inline;fill:none;fill-opacity:1;stroke:#ffffff;stroke-width:9.50082;stroke-linecap:butt;stroke-linejoin:miter;stroke-miterlimit:4;stroke-dasharray:none;stroke-opacity:1"
     d="M 577.6894,762.93308 657.48061,611.693"
     id="path7283"
     sodipodi:nodetypes="cc" /><path
     style="display:inline;fill:#ffffff;fill-opacity:1;stroke:none;stroke-width:5.0466px;stroke-linecap:butt;stroke-linejoin:miter;stroke-opacity:1"
     d="m 673.134,617.969 -42.50068,-4.1e-4 c -1.36885,-3.10976 0.18044,-5.55252 3.37178,-7.44564 l 33.77852,-4.69658 c 0,0 2.54425,-0.45219 5.263,-0.13969 4.31753,1.11418 5.19563,10.8346 2.59909,11.83636 -1.26403,0.55193 -2.51171,0.44596 -2.51171,0.44596 z"
     id="path8048"
     sodipodi:nodetypes="ccccccc" /><path
     id="path1039"
     style="fill:none;fill-opacity:1;stroke:#ffffff;stroke-width:9.50082;stroke-opacity:1"
     d="m 795.72403,759.0408 a 76.289257,76.010714 0 0 1 -76.28911,76.01071 76.289257,76.010714 0 0 1 -76.2895,-76.01071 76.289257,76.010714 0 0 1 76.2895,-76.01071 76.289257,76.010714 0 0 1 76.28911,76.01071 z" /><path
     id="ellipse1649"
     style="fill:#ffffff;fill-opacity:1;stroke:none;stroke-width:1.21437;stroke-opacity:1"
     d="m 729.18684,759.0408 a 9.752055,9.7164484 0 0 1 -9.75192,9.71645 9.752055,9.7164484 0 0 1 -9.75211,-9.71645 9.752055,9.7164484 0 0 1 9.75211,-9.71645 9.752055,9.7164484 0 0 1 9.75192,9.71645 z" /><path
     id="ellipse1687"
     style="fill:none;fill-opacity:1;stroke:#ffffff;stroke-width:9.49988;stroke-opacity:1"
     d="m 505.24893,759.0408 a 76.289257,76.010714 0 0 1 -76.28921,76.01071 76.289257,76.010714 0 0 1 -76.28931,-76.01071 76.289257,76.010714 0 0 1 76.28931,-76.01071 76.289257,76.010714 0 0 1 76.28921,76.01071 z" /><path
     id="ellipse1689"
     style="fill:#ffffff;fill-opacity:1;stroke:none;stroke-width:1.21437;stroke-opacity:1"
     d="m 438.71175,759.0408 a 9.752055,9.7164484 0 0 1 -9.75203,9.71645 9.752055,9.7164484 0 0 1 -9.75206,-9.71645 9.752055,9.7164484 0 0 1 9.75206,-9.71645 9.752055,9.7164484 0 0 1 9.75203,9.71645 z" /><path
     id="ellipse6597"
     style="fill:none;fill-opacity:1;stroke:#ffffff;stroke-width:7.70988;stroke-opacity:1"
     d="m 612.4316,760.37478 a 29.89993,29.79076 0 0 1 -29.89952,29.79078 29.89993,29.79076 0 0 1 -29.90002,-29.79078 29.89993,29.79076 0 0 1 29.90002,-29.79075 29.89993,29.79076 0 0 1 29.89952,29.79075 z" /><path
     id="ellipse6599"
     style="fill:#ffffff;fill-opacity:1;stroke:none;stroke-width:1.21437;stroke-opacity:1"
     d="m 591.53311,759.07925 a 9.752055,9.7164484 0 0 1 -9.75211,9.71644 9.752055,9.7164484 0 0 1 -9.75212,-9.71644 9.752055,9.7164484 0 0 1 9.75212,-9.71645 9.752055,9.7164484 0 0 1 9.75211,9.71645 z" /></svg>
